<svg xmlns="http://www.w3.org/2000/svg" viewBox="0 0 512 512" fill="none">
  <!-- Hintergrund -->
  <rect width="512" height="512" rx="112" fill="#1a0a2e"/>
  <rect width="512" height="512" rx="112" fill="rgba(168,85,247,0.15)"/>

  <!-- GEWEIH LINKS: Hauptast + 2 Enden -->
  <path d="M160 288 L144 192 L96 112" stroke="#a855f7" stroke-width="22" stroke-linecap="round" stroke-linejoin="round" fill="none"/>
  <path d="M144 192 L96 160" stroke="#a855f7" stroke-width="20" stroke-linecap="round" fill="none"/>
  <path d="M152 152 L128 112" stroke="#c084fc" stroke-width="16" stroke-linecap="round" fill="none"/>

  <!-- GEWEIH RECHTS: Hauptast + 2 Enden -->
  <path d="M352 288 L368 192 L416 112" stroke="#a855f7" stroke-width="22" stroke-linecap="round" stroke-linejoin="round" fill="none"/>
  <path d="M368 192 L416 160" stroke="#a855f7" stroke-width="20" stroke-linecap="round" fill="none"/>
  <path d="M360 152 L384 112" stroke="#c084fc" stroke-width="16" stroke-linecap="round" fill="none"/>

  <!-- KOPF: Oval -->
  <ellipse cx="256" cy="336" rx="96" ry="88" fill="#a855f7" opacity="0.9"/>

  <!-- OHREN -->
  <ellipse cx="168" cy="280" rx="29" ry="40" fill="#a855f7" opacity="0.75" transform="rotate(-15 168 280)"/>
  <ellipse cx="344" cy="280" rx="29" ry="40" fill="#a855f7" opacity="0.75" transform="rotate(15 344 280)"/>

  <!-- AUGEN -->
  <circle cx="216" cy="328" r="16" fill="rgba(168,85,247,0.25)"/>
  <circle cx="296" cy="328" r="16" fill="rgba(168,85,247,0.25)"/>
  <!-- Glanzpunkt Augen -->
  <circle cx="220" cy="322" r="6" fill="rgba(255,255,255,0.4)"/>
  <circle cx="300" cy="322" r="6" fill="rgba(255,255,255,0.4)"/>

  <!-- NASE -->
  <ellipse cx="256" cy="384" rx="24" ry="16" fill="rgba(168,85,247,0.4)"/>

  <!-- Musiknote im Geweihmittelpunkt -->
  <circle cx="256" cy="208" r="24" fill="#f59e0b" opacity="0.95"/>
  <line x1="280" y1="208" x2="280" y2="152" stroke="#f59e0b" stroke-width="18" stroke-linecap="round"/>
  <line x1="280" y1="152" x2="320" y2="163" stroke="#f59e0b" stroke-width="16" stroke-linecap="round"/>
</svg>
